<svg xmlns="http://www.w3.org/2000/svg" viewBox="0 0 120 120" width="120" height="120">
  <rect width="120" height="120" rx="12" fill="transparent"/>
  <!-- Open book -->
  <path d="M60 30 L60 95" stroke="#d4a843" stroke-width="2" fill="none"/>
  <path d="M60 30 Q40 28 25 35 L25 90 Q40 83 60 85" fill="none" stroke="#d4a843" stroke-width="2.5" stroke-linecap="round"/>
  <path d="M60 30 Q80 28 95 35 L95 90 Q80 83 60 85" fill="none" stroke="#d4a843" stroke-width="2.5" stroke-linecap="round"/>
  <!-- Cross above book -->
  <line x1="60" y1="12" x2="60" y2="28" stroke="#d4a843" stroke-width="3" stroke-linecap="round"/>
  <line x1="53" y1="19" x2="67" y2="19" stroke="#d4a843" stroke-width="3" stroke-linecap="round"/>
  <!-- Page lines left -->
  <line x1="33" y1="45" x2="55" y2="43" stroke="#d4a843" stroke-width="1" opacity="0.5"/>
  <line x1="33" y1="55" x2="55" y2="53" stroke="#d4a843" stroke-width="1" opacity="0.5"/>
  <line x1="33" y1="65" x2="55" y2="63" stroke="#d4a843" stroke-width="1" opacity="0.5"/>
  <line x1="33" y1="75" x2="55" y2="73" stroke="#d4a843" stroke-width="1" opacity="0.5"/>
  <!-- Page lines right -->
  <line x1="65" y1="43" x2="87" y2="45" stroke="#d4a843" stroke-width="1" opacity="0.5"/>
  <line x1="65" y1="53" x2="87" y2="55" stroke="#d4a843" stroke-width="1" opacity="0.5"/>
  <line x1="65" y1="63" x2="87" y2="65" stroke="#d4a843" stroke-width="1" opacity="0.5"/>
  <line x1="65" y1="73" x2="87" y2="75" stroke="#d4a843" stroke-width="1" opacity="0.5"/>
  <!-- "NT" text -->
  <text x="60" y="112" text-anchor="middle" font-family="serif" font-weight="700" font-size="18" fill="#d4a843">NT</text>
</svg>
